<?xml version="1.0" encoding="iso-8859-1"?>
<!-- Uploaded to: SVG Repo, www.svgrepo.com, Generator: SVG Repo Mixer Tools -->
<svg fill="#6B6B6B" height="800px" width="800px" version="1.1" id="Layer_1" xmlns="http://www.w3.org/2000/svg" xmlns:xlink="http://www.w3.org/1999/xlink" 
	 viewBox="0 0 504.836 504.836" xml:space="preserve">
<g>
	<g>
		<path d="M419.294,53.276c-5.944-8.772-16.392-13.832-28.644-13.832h-28.02l1.612-7.892h2.332c6.524,0,12.048-5.1,12.048-11.624
			v-8.012C378.622,5.388,373.098,0,366.574,0h-228.48c-6.524,0-11.888,5.388-11.888,11.916v8.012
			c0,6.524,5.364,11.624,11.888,11.624h1.728l1.616,7.892h-27.252c-12.26,0-22.7,5.06-28.644,13.832
			c-5.944,8.772-6.756,20.344-2.22,31.736l39.5,99.112c8.212,20.616,32.032,36.744,54.22,36.744h7.388
			c11.812,15.772,32.492,30.964,52.216,34.508v170.576h-4.08c-10.812,0-19.568,8.756-19.656,19.56
			c-6.516,0.012-11.764,5.312-11.764,11.828v19.888h-8.08c-6.524,0-11.64,5.228-11.64,11.752v11.872
			c0,2.176,1.576,3.984,3.752,3.984h134.344c2.18,0,3.892-1.808,3.892-3.984V488.98c0-6.528-5.252-11.752-11.776-11.752h-7.944
			V457.34c0-6.516-5.392-11.816-11.908-11.828c-0.084-10.8-8.98-19.56-19.796-19.56h-3.788v-170.64
			c19.72-3.66,39.676-18.668,51.416-34.44h8.18c22.192,0,46.012-16.116,54.22-36.736L421.521,85
			C426.046,73.604,425.242,62.048,419.294,53.276z M144.806,175.404l-39.5-99.14c-1.588-3.976-1.656-7.536-0.18-9.708
			c1.472-2.172,4.772-3.448,9.06-3.448h32.184l27.916,133.956C162.377,195.728,149.109,186.208,144.806,175.404z M252.522,169.872
			c-26.136,0-47.328-21.192-47.328-47.328c0-26.14,21.192-47.332,47.328-47.332c26.144,0,47.332,21.192,47.332,47.332
			C299.854,148.68,278.666,169.872,252.522,169.872z M399.526,76.264l-39.5,99.14c-4.4,11.04-18.16,20.744-30.256,21.732
			l27.924-134.028h32.952c4.28,0,7.584,1.276,9.06,3.448C401.182,68.728,401.114,72.288,399.526,76.264z"/>
	</g>
</g>
</svg>